<?xml version="1.0" encoding="utf-8"?>
<!-- Generator: Adobe Illustrator 16.0.0, SVG Export Plug-In . SVG Version: 6.00 Build 0)  -->
<!DOCTYPE svg PUBLIC "-//W3C//DTD SVG 1.1//EN" "http://www.w3.org/Graphics/SVG/1.1/DTD/svg11.dtd">
<svg version="1.1"
	 id="svg2" xmlns:dc="http://purl.org/dc/elements/1.1/" xmlns:cc="http://creativecommons.org/ns#" xmlns:rdf="http://www.w3.org/1999/02/22-rdf-syntax-ns#" xmlns:svg="http://www.w3.org/2000/svg" xmlns:sodipodi="http://sodipodi.sourceforge.net/DTD/sodipodi-0.dtd" xmlns:inkscape="http://www.inkscape.org/namespaces/inkscape" sodipodi:docname="landDIV.svg" inkscape:version="0.91 r13725"
	 xmlns="http://www.w3.org/2000/svg" xmlns:xlink="http://www.w3.org/1999/xlink" x="0px" y="0px" width="6667.753px"
	 height="3742.887px" viewBox="624.774 952.98 6667.753 3742.887" enable-background="new 624.774 952.98 6667.753 3742.887"
	 xml:space="preserve">
<defs>
	
	<inkscape:path-effect  effect="spiro" is_visible="true" id="path-effect4540"></inkscape:path-effect>
	<inkscape:path-effect  effect="spiro" is_visible="true" id="path-effect4535"></inkscape:path-effect>
	<inkscape:path-effect  effect="spiro" is_visible="true" id="path-effect4529"></inkscape:path-effect>
</defs>
<sodipodi:namedview  inkscape:cy="0" inkscape:cx="4136.0796" inkscape:zoom="0.14364084" showgrid="false" guidetolerance="10" gridtolerance="10" objecttolerance="10" borderopacity="1" bordercolor="#666666" pagecolor="#ffffff" id="namedview4" inkscape:current-layer="svg2" inkscape:window-maximized="1" inkscape:window-y="-8" inkscape:window-x="-8" inkscape:window-height="877" inkscape:window-width="1600" inkscape:pageshadow="2" inkscape:pageopacity="0">
	</sodipodi:namedview>
<g id="g4396" transform="matrix(1.0824794,0,0,1.0824794,-184.86045,-785.64014)" opacity="0.87">
	<path id="path4768" inkscape:connector-curvature="0" fill="#154C9D" stroke="#FFFFFF" stroke-width="7" d="M5592.069,1917.507
		l-41.859-15.697l-60.466,6.047l-72.557-6.047l-72.559-21.163h-111.861h-18.139l-3.025,18.141v48.372l6.048,51.395l-3.023,72.557
		v51.212l81.628,18.323l66.51,48.373l-0.108,0.862l118.087-49.204l109.546-68.095l23.686-91.784L5592.069,1917.507
		L5592.069,1917.507z"/>
	<path id="path4771" inkscape:connector-curvature="0" fill="#154C9D" stroke="#FFFFFF" stroke-width="7" d="M5687.417,2246.283
		l-2.38-40.469l-94.066-135.87l-0.68,2.638l-109.546,68.096l-118.086,49.203l-8.962,71.696l-9.068,84.652l66.51-9.069l93.721-9.069
		l84.653-36.28l96.743-45.349L5687.417,2246.283z"/>
	<path id="path4301" inkscape:connector-curvature="0" fill="#154C9D" stroke="#FFFFFF" stroke-width="7" d="M5592.069,1917.507
		l21.909,63.292l-23.007,89.145l94.066,135.87l2.38,40.469l77.445-11.914l93.721-39.303h96.744l60.466-6.047l6.045-66.51
		l-42.325-75.582l-36.278-54.419l-105.815-45.348l-108.837-18.141l-129.999-9.07L5592.069,1917.507L5592.069,1917.507z"/>
	<path id="path4748" inkscape:connector-curvature="0" fill="#CD271A" stroke="#FFFFFF" stroke-width="7" d="M5763.97,2234.505
		l-77.713,11.955l-96.744,45.349l-84.652,36.28l-93.721,9.069l-64.536,8.8l-11.045,18.408l12.093,133.024l69.534,51.396
		l114.886,12.093l75.581,15.116l0.234,0.29l71.228-21.106l65.136-109.547l11.844-97.705L5763.97,2234.505L5763.97,2234.505z"/>
	<path id="path4753" inkscape:connector-curvature="0" fill="#CD271A" stroke="#FFFFFF" stroke-width="7" d="M6073.185,2420.04
		l-130.566,31.515l-195.658-28.286l-2.711,22.365l-65.136,109.547l-71.228,21.105l51.162,63.199l57.442,63.488l87.674-21.164
		l60.466,15.116l60.463-24.186l93.721,15.116l96.745-18.139l11.296-0.806l-2.227-44.544l-27.209-123.952l-21.163-72.559
		L6073.185,2420.04L6073.185,2420.04z"/>
	<path id="path4303" inkscape:connector-curvature="0" fill="#CD271A" stroke="#FFFFFF" stroke-width="7" d="M6016.063,2186.049
		l-0.271,2.971l-60.466,6.046h-96.744l-93.721,39.303l-0.892,0.136l-7.877,113.423l-9.132,75.34l195.658,28.286l130.566-31.515
		L6043,2343.207l-15.116-136.047L6016.063,2186.049L6016.063,2186.049z"/>
	<path id="path4738" inkscape:connector-curvature="0" fill="#68CAB7" stroke="#FFFFFF" stroke-width="7" d="M5869.085,2695.143
		l-4.456,1.783l-60.466-15.116l-84.365,20.365l-15.403,43.124l-21.161,81.629l-15.117,51.395v81.63l-30.233,51.394l6.047,90.697
		l9.069,24.188l51.395,3.022l69.536,30.233l78.604,15.116l96.743-6.047l56.492-11.768l-6.899-98.281l-85.861-115.469
		l-53.292-177.644L5869.085,2695.143L5869.085,2695.143z"/>
	<path id="path4305" inkscape:connector-curvature="0" fill="#68CAB7" stroke="#FFFFFF" stroke-width="7" d="M5869.085,2695.143
		l-9.366,70.25l53.292,177.644l85.862,115.469l6.898,98.281l88.626-18.465l157.207-27.208l75.583-24.186l58.159-28.2l-0.718-2.033
		l-75.581-93.721l-108.837-84.652v-63.488l-27.208-48.372l-45.349-81.628l-0.798-15.922l-11.297,0.806l-96.743,18.139
		l-93.721-15.116l-56.008,22.403H5869.085z"/>
	<path id="path4647" inkscape:connector-curvature="0" fill="#E1667D" stroke="#FFFFFF" stroke-width="7" d="M5948.473,3512.418
		l-32.254-32.254l-78.707-51.567l-157.412-81.418l-69.425,3.857v4.963l-3.025,45.348l-54.417,51.396l3.023,102.791l42.326,51.395
		l130,39.302l74.783,26.923l28.103-88.993l112.625-65.698L5948.473,3512.418L5948.473,3512.418z"/>
	<path id="path4642" inkscape:connector-curvature="0" fill="#E1667D" stroke="#FFFFFF" stroke-width="7" d="M5654.48,3126.316
		l-28.689,15.029h-30.231l-18.141,63.488l33.257,93.721v52.481l69.426-3.858l157.412,81.419l78.707,51.567l32.254,32.254
		l62.736-86.535l-16.284-119.416l12.682-150.063l-58.329,12.151l-96.744,6.047l-78.604-15.116l-69.536-30.233L5654.48,3126.316
		L5654.48,3126.316z"/>
	<path id="path4307" inkscape:connector-curvature="0" fill="#E1667D" stroke="#FFFFFF" stroke-width="7" d="M6385.346,3058.728
		l-58.159,28.2l-75.583,24.186l-157.207,27.208l-86.789,18.082l-12.683,150.063l16.284,119.416l-67.117,92.577l6.416-3.742
		l168.642,3.306l36.374,109.122l9.892,35.855l2.86-2.226l54.853-42.385l64.825-37.398l77.29-52.359l102.225-54.853l34.829-14.386
		l-5.807-3.63l-33.256-96.744l-24.186-148.14L6385.346,3058.728L6385.346,3058.728z"/>
	<path id="path4933" inkscape:connector-curvature="0" fill="#4B995D" stroke="#FFFFFF" stroke-width="7" d="M5010.688,1894.218
		H4887.52l-136.438,26.409l-70.42,57.216l-4.107,51.342l-23.915-2.215l-45.312,60.415l29.607,71.057l159.879,14.804l112.508-20.724
		l69.182-61.278l1.39,0.226l4.841-48.41l33.763-84.409L5010.688,1894.218L5010.688,1894.218z"/>
	<path id="path4607" inkscape:connector-curvature="0" fill="#4B995D" stroke="#FFFFFF" stroke-width="7" d="M5010.688,1894.218
		l7.81,64.434l-33.762,84.409l-4.842,48.41l4.967,0.806l36.278,39.302l60.466,6.047l45.35,15.116l87.674-21.164v-60.466
		l3.023-72.557l-6.048-51.395v-48.372l4.37-26.216l-64.376,52.454l-140.842-30.808H5010.688L5010.688,1894.218z"/>
	<path id="path4612" inkscape:connector-curvature="0" fill="#4B995D" stroke="#FFFFFF" stroke-width="7" d="M4625.262,1641.418
		l11.755,39.191l-16.019-10.414l-23.169-15.061l-21.556,23.516l15.676,56.826l-9.796,39.191l-23.515,33.311l-50.948,41.15
		l-9.574,71.808v56.457l39.303,48.373l-0.469,2.226l70.004-5.251l69.6,6.445l4.107-51.342l64.778-52.633l5.642-4.584l31.692-6.134
		l-7.372-57.132l14.723-55.79l-4.184,8.367l3.919-86.219l-37.232,11.757l-21.554,9.798l-17.635-35.272l13.717-31.352l-29.394-19.595
		l-41.149-11.757l-31.353-5.88H4625.262z"/>
	<path id="path4299" inkscape:connector-curvature="0" fill="#4B995D" stroke="#FFFFFF" stroke-width="7" d="M5091.627,1606.147
		l-50.948,3.919l-47.028,21.555l-35.271,33.311l-29.393,45.069l-19.596,21.555l-11.758,54.865l-19.595-33.311l-25.473-17.635
		l-29.393,19.595l-17.635,15.676l-15.412,30.825l-14.722,55.79l7.372,57.132l104.746-20.275h123.236l140.842,30.809l64.376-52.455
		l7.724-46.344l-3.024-126.977l-21.484-42.969l0.346,4.87l-54.782-44.51l-35.493,3.222L5091.627,1606.147L5091.627,1606.147z"/>
	<path id="path4415" inkscape:connector-curvature="0" fill="#2A7E1D" stroke="#FFFFFF" stroke-width="7" d="M6165.414,3663.001
		l-9.892-35.855l-36.373-109.122l-168.642-3.306l-119.041,69.441l-28.102,88.992l0.798,0.289l123.954,15.115l42.987,60.184
		l35.11-13.166l42.385-2.493l74.797-37.397L6165.414,3663.001z"/>
	<path id="path4325" inkscape:connector-curvature="0" fill="#FFB10A" stroke="#FFFFFF" stroke-width="7" d="M827.419,3034.925
		l-74.8,112.199l-4.675,37.399l79.474-14.025l18.7,37.4l-37.401,46.749l32.725,56.099l102.848,18.701l70.126,28.05v-79.474
		l-32.725-70.125l-18.701-93.498l-70.123-18.7l-18.701-42.073L827.419,3034.925L827.419,3034.925z"/>
	<path id="path4549" inkscape:connector-curvature="0" fill="#FFB10A" stroke="#FFFFFF" stroke-width="7" d="M1685.1,3247.558
		l-81.978-70.473l-174.529-2.494l-115.703,73.507l-5.094,37.357l-11.757,52.906l37.231,62.706l68.582,21.553l54.867,9.798
		l35.258-68.556l0.015-0.026l92.096-31.352l80.34-47.028L1685.1,3247.558L1685.1,3247.558z"/>
	<path id="path4557" inkscape:connector-curvature="0" fill="#FFB10A" stroke="#FFFFFF" stroke-width="7" d="M1515.615,2950.012
		l-144.365-9.787l-80.21,2.766l-28.311,40.698l-15.677,66.622l25.472,48.989l19.596,70.543l21.554,72.502l-0.785,5.752
		l115.703-73.507l107.238,1.533l9.946-46.412l-12.467-109.703L1515.615,2950.012L1515.615,2950.012z"/>
	<path id="path4552" inkscape:connector-curvature="0" fill="#FFB10A" stroke="#FFFFFF" stroke-width="7" d="M1515.615,2950.012
		l17.696,69.996l12.467,109.703l-9.946,46.412l67.291,0.961l81.978,70.472l2.843-5.212l66.624-50.948v-72.502l52.908-70.543
		l31.352-25.474l68.584-3.918l32.795-46.3l-56.284-58.296l-68.564-65.135l-141.798-74.766l-18.078,71.018l-137.129,104.718
		L1515.615,2950.012L1515.615,2950.012z"/>
	<path id="path4396" inkscape:connector-curvature="0" fill="#FFB10A" stroke="#FFFFFF" stroke-width="7" d="M1491.992,2648.61
		l-27.434,29.393c0,0-0.001,31.353-7.839,37.231c-7.838,5.878-33.311,31.353-33.311,31.353l-48.987,25.473l-39.191,5.878
		l-15.676,60.747l-5.919,20.29l-7.797,26.738l-11.758,52.907l-3.041,4.37l80.21-2.765l147.102,9.972l137.129-104.718l18.078-71.018
		l-46.755-24.652l-93.811-85.58L1491.992,2648.61L1491.992,2648.61z"/>
	<path id="path4340" inkscape:connector-curvature="0" fill="#F0CFBA" stroke="#FFFFFF" stroke-width="7" d="M1940.852,2973.33
		l-0.474-0.492l-1.387,3.667L1940.852,2973.33z"/>
	<path id="path4347" inkscape:connector-curvature="0" fill="#FFB10A" stroke="#FFFFFF" stroke-width="7" d="M1672.803,2774.064
		l84.274-34.538h137.127l113.133-65.136l17.14-109.703l-34.75-38.029l-52.924-32.849l-39.19,9.796l-37.232-1.959l-72.502,7.84
		h-58.786l-52.906,27.433l-60.746,19.595l-58.786,37.232l-43.109,27.431l19.596,43.11l-0.149-0.056l93.81,85.58L1672.803,2774.064
		L1672.803,2774.064z"/>
	<path id="path4537" inkscape:connector-curvature="0" fill="#FFB10A" stroke="#FFFFFF" stroke-width="7" d="M2281.275,2721.272
		l-49.852,4.532l-104.716-4.987l-119.124-48.005l-0.246,1.578l-113.133,65.136h-137.127l-84.274,34.538l142.554,75.164
		l68.564,65.135l56.284,58.296l0.517-0.728l-0.344,0.906l0.474,0.492l18.489-31.539l61.709-20.57l243.403-102.846l17.14-95.99
		L2281.275,2721.272z"/>
	<path id="path4323" inkscape:connector-curvature="0" fill="#FFB10A" stroke="#FFFFFF" stroke-width="7" d="M2248.365,2305.696
		l-54.867,25.472l-27.431,45.069l-56.827,11.757l-113.652,11.758c0,0-23.515,45.069-23.515,54.867
		c0,9.797,21.555,74.461,21.555,74.461l-3.902-2.421l34.75,38.029l-16.894,108.125l119.124,48.005l104.716,4.987l49.852-4.532
		l-40.819-142.872l21.717-88.68l-0.092,0.169l1.959-66.623l5.879-29.393l13.717-21.555l-33.313-29.393l37.231-35.27
		L2248.365,2305.696L2248.365,2305.696z"/>
	<path id="path4497" inkscape:connector-curvature="0" fill="#BD70CF" stroke="#FFFFFF" stroke-width="7" d="M2503.044,3366.028
		l-112.053-46.828l-42.384-107.21l-106.602-87.565l-25.547,12.774l-82.277,78.847l-45.724-6.35l1.188,1.296l-17.635,19.595
		l-25.474-9.798l-1.959,41.151l50.948,35.271l31.352,23.515h-58.785l-3.919,25.474l31.353,45.068l37.229,31.353l41.15,41.15
		l56.827,39.191l-10.007-4.102l22.043,14.346l69.534-6.045v-57.443l48.373-15.116l87.674,18.14l27.211-69.535L2503.044,3366.028
		L2503.044,3366.028z"/>
	<path id="path4335" inkscape:connector-curvature="0" fill="#BD70CF" stroke="#FFFFFF" stroke-width="7" d="M2311.815,3002.441
		l-26.792,100.476l-43.018,21.508l106.601,87.565l42.384,107.21l112.053,46.828l20.887-13.055l54.419-6.047l57.441,21.164
		l108.838-15.117l39.303-54.419l1.627-0.896l-54.868-57.613l-82.277-92.563l-61.707-99.417l-109.704-6.856l-130.273-37.71
		L2311.815,3002.441z"/>
	<path id="path4330" inkscape:connector-curvature="0" fill="#BD70CF" stroke="#FFFFFF" stroke-width="7" d="M2172.653,2857.162
		l-151.603,64.058l-61.709,20.57l-20.35,34.715l-25.702,67.929l-48.988,37.229l-33.313,58.788l-25.474,58.785l-17.635,43.109
		l7.839,1.959l29.393-15.677l60.745-33.313l9.797-23.513h47.028l47.028-31.352l21.555,35.271l56.826,11.757l20.367,22.218
		l45.723,6.35l82.277-78.847l68.566-34.283l26.793-100.476l-78.217-2.371L2172.653,2857.162L2172.653,2857.162z"/>
	<path id="path4511" inkscape:connector-curvature="0" fill="#FFB10A" stroke="#FFFFFF" stroke-width="7" d="M2583.154,3047.845
		l37.218-55.262l-22.439-124.662l-83.925-123.887l-75.644,14.183l-158.117-40.542l1.346,4.71l-17.14,95.99l-91.799,38.787
		l60.946,142.908l113.13,3.429l130.273,37.711L2583.154,3047.845L2583.154,3047.845z"/>
	<path id="path4516" inkscape:connector-curvature="0" fill="#FFB10A" stroke="#FFFFFF" stroke-width="7" d="M3067.777,2911.086
		l-120.789,41.604l-172.035-22.438l-164.892,5.047l10.312,57.283l-37.218,55.262l3.552,0.221l61.707,99.417l82.277,92.563
		l54.868,57.613l58.837-32.36l36.279-57.441l39.302-60.465l42.325-24.187c0,0,6.047-15.872,13.228-33.255
		c3.59-8.691,7.464-17.762,11.007-25.415c1.771-3.826,3.459-7.298,4.989-10.191c1.529-2.893,2.898-5.208,4.032-6.719
		c2.267-3.023,6.425-9.26,11.385-16.913c4.96-7.652,10.724-16.722,16.203-25.415c10.96-17.384,20.786-33.256,20.786-33.256
		l24.186-60.465L3067.777,2911.086L3067.777,2911.086z"/>
	<path id="path4506" inkscape:connector-curvature="0" fill="#FFB10A" stroke="#FFFFFF" stroke-width="7" d="M2729.662,2683.508
		l-91.839,37.309l-123.815,23.216l83.925,123.887l12.127,67.378l164.892-5.047l172.035,22.439l120.789-41.605l-26.871-38.812
		l-78.605-12.092l-57.442-51.397l-105.813-60.464l-39.303-45.349L2729.662,2683.508L2729.662,2683.508z"/>
	<path id="path7844" inkscape:connector-curvature="0" fill="#FFB10A" stroke="#FFFFFF" stroke-width="7" d="M2440.399,2321.372
		l-50.948,41.148l19.594,66.624l13.717,56.827l-29.393,37.231l-35.271-21.555l-1.958-48.988l11.757-39.19l-37.232-25.474
		l-35.271,25.474l-5.879,25.474l-27.342,50.777l-21.717,88.68l39.791,139.274l158.117,40.542l199.459-37.399l91.839-37.309
		l-21.314-13.791l-60.464-72.558l-24.186-57.444l-18.141-36.278l2.743-120.586l-11.138,5.141l-41.151-23.513l-48.989,13.717
		l-33.311-19.597L2440.399,2321.372L2440.399,2321.372z"/>
	<path id="path4869" inkscape:connector-curvature="0" fill="#8D4B95" stroke="#FFFFFF" stroke-width="7" d="M3496.87,2365.732
		l-67.914,47.334l-82.9,26.647l-73.723-55.291l-62.252,58.237l15.177,127.48l60.705,157.834l-17.326,90.954l35.292-1.069
		l84.652-39.302l8.015-0.829l79.659-8.24h60.466l63.488-48.373l18.14-33.256l-18.14-45.349l-42.326-30.231l-6.045-66.512
		l-24.186-90.697l-33.257-78.605L3496.87,2365.732L3496.87,2365.732z"/>
	<path id="path4306" inkscape:connector-curvature="0" fill="#8D4B95" stroke="#FFFFFF" stroke-width="7" d="M3261.437,1864.804
		l-27.434,17.635l-7.839,47.027c0,0-23.513,43.11-23.513,50.948c0,7.839,17.635,72.502,17.635,72.502l-1.019-1.344l33.306,90.593
		l57.67,109.27l-6.071,103.199l-31.841,29.787l73.724,55.291l82.899-26.647l67.914-47.334l15.665-67.875l27.209-57.442v-48.372
		l-9.069-66.512l5.748-15.327l-10.451,7.377l-45.069,3.92v-47.029l37.231-25.472l31.353-21.555l-23.515-78.381l-39.191-23.515
		l-54.865-23.515l-39.19,21.556l-7.839,25.473l-31.353,23.514l-52.908,11.757l15.678-45.068l-3.921-37.232L3261.437,1864.804
		L3261.437,1864.804z"/>
	<path id="path4311" inkscape:connector-curvature="0" fill="#8D4B95" stroke="#FFFFFF" stroke-width="7" d="M3124.27,1766.828
		l-39.19,17.634l-3.919,84.26l-13.716,94.058l-3.919,70.542l-10.327,0.43l12.193,58.524l15.453,24.724l-40.739,19.096v154.799
		l39.459,136.586l130.524,15.257l-0.01-0.079l94.094-88.023l6.071-103.199l-57.67-109.269l-33.306-90.594l-0.808-1.066
		l-47.163-62.255l-27.432-31.352l-0.122-5.619l-1.839-84.519l3.92-84.259L3124.27,1766.828L3124.27,1766.828z"/>
	<path id="path4889" inkscape:connector-curvature="0" fill="#8D4B95" stroke="#FFFFFF" stroke-width="7" d="M3078.401,2423.449
		l-40.261,54.753l-88.823,50.333l-37.856,40.885l31.516,21.967l32.585,91.643l-64.734,34.991l-22.221,81.479l16.253,9.287
		l57.442,51.396l78.605,12.093l8.744,12.63l4.58-2.8l25.978-15.875l60.466-57.444l63.488,12.094l64.474-1.954l17.326-90.954
		l-60.705-157.834l-15.169-127.4l-130.524-15.257L3078.401,2423.449L3078.401,2423.449z"/>
	<path id="path4316" inkscape:connector-curvature="0" fill="#8D4B95" stroke="#FFFFFF" stroke-width="7" d="M2622.633,2160.69
		l-37.229,11.757l-15.677,45.069l37.23,47.03l7.839,76.421l7.837,35.271l-14.333,6.615l-2.743,120.585l18.141,36.278l24.186,57.443
		l60.464,72.558l51.396,33.255l39.303,45.349l89.56,51.177l22.221-81.478l64.733-34.992l-32.584-91.643l-31.516-21.966
		l37.856-40.885l30.68-17.387l-33.642-65.514l-65.135-53.292l-107.519,2.067l-6.77-12.458l-9.091-55.554v0.853l-27.434-76.42
		l-9.798-48.989l-48.987-23.513L2622.633,2160.69L2622.633,2160.69z"/>
	<path id="path4952" inkscape:connector-curvature="0" fill="#8D4B95" stroke="#FFFFFF" stroke-width="7" d="M3080.844,2116.999
		l-15.453-24.724l-12.193-58.523l-36.7,1.529l-43.109-1.959l15.676-66.624l19.595-56.826l-21.554-54.867l-41.15-47.028
		l-37.232-15.676l-48.987,21.554v62.705l37.229,48.988l-29.392,25.474l17.637,45.069l-7.839,39.19l-62.704-35.272l-7.839,23.516
		l-21.554,5.878l-15.676-56.827l-48.989-21.553l-17.635,39.191v74.462l15.676,64.663l33.311,74.461l5.879,58.788v63.809
		l9.092,55.555l6.77,12.457l107.519-2.067l65.135,53.293l33.642,65.514l58.142-32.947l40.261-54.753l-38.295-132.553v-154.799
		L3080.844,2116.999L3080.844,2116.999z"/>
	<path id="path4331" inkscape:connector-curvature="0" fill="#F1D739" stroke="#FFFFFF" stroke-width="7" d="M5543.11,4524.405
		l-39.682,71.425l-107.434,101.295l-36.69,58.372l29.308,12.213l46.456,28.389l46.454,3.871l51.618,49.036l-4.426,14.935
		l66.846,18.799l66.511-39.303l39.303-36.277l30.233-60.466l3.022-51.394l7.281-24.272l1.215-4.05l-22.292-34.024l-32.221-45.646
		l-29.535-42.959l-56.386-8.054l-59.07-10.741L5543.11,4524.405z"/>
	<path id="path4664" inkscape:connector-curvature="0" fill="#F1D739" stroke="#FFFFFF" stroke-width="7" d="M5393.065,4701.789
		l-33.218-62.744l-54.279-46.137l-48.853-29.855l-97.704,56.993l-81.42-16.284l-97.781,7.112l-1.55,4.568l54.197,73.553
		l89.04,38.711l118.717,15.486l70.973-7.742l48.116,20.047L5393.065,4701.789L5393.065,4701.789z"/>
	<path id="path11748" inkscape:connector-curvature="0" fill="#F1D739" stroke="#FFFFFF" stroke-width="7" d="M5415.711,4344.454
		l-77.425,3.871l-52.906,20.647l-69.683,30.968l-33.551,32.261l-56.78,18.066l-51.616,49.036l-72.263,47.745l-21.678,63.825
		l97.78-7.112l81.421,16.284l97.704-56.993l48.853,29.855l54.279,46.137l33.217,62.744l2.93-4.663l107.434-101.295l39.682-71.425
		l-20.971-47.183l-8.056-26.852l5.37-45.646l-16.668-45.006l-26.422-1.071L5415.711,4344.454L5415.711,4344.454z"/>
	<path id="path4381" inkscape:connector-curvature="0" fill="#2A7E1D" stroke="#FFFFFF" stroke-width="7" d="M5823.341,4337.757
		l-5.807,0.414l-1.277,3.407l-25.311,1.054l-109.41,22.469l-109.685-2.58l-68.281-2.77l-0.786-0.033l16.669,45.006l-5.372,45.646
		l8.058,26.851l21.479,48.331l59.07,10.74l56.387,8.055l0.509,0.741l26.585-36.379l117.41-60.291L5823.341,4337.757
		L5823.341,4337.757z"/>
	<path id="path11753" inkscape:connector-curvature="0" fill="#2A7E1D" stroke="#FFFFFF" stroke-width="7" d="M5823.341,4337.757
		l-19.761,110.663l-117.41,60.291l-26.585,36.379l29.026,42.218l32.221,45.646l22.292,34.024l0.573-1.911l42.327,15.116
		l36.278,42.325l24.187-15.116l84.651-12.092l21.164-27.211l39.301-57.442l35.549-8.886l7.828-22.509l2.686-26.851l-34.904-26.851
		l-18.796-42.959l-26.851-24.166l-10.741-34.905l-24.165-13.425l-34.905-32.221l-24.166-42.96L5823.341,4337.757L5823.341,4337.757z
		"/>
	<path id="path4297" inkscape:connector-curvature="0" fill="#2A7E1D" stroke="#FFFFFF" stroke-width="7" d="M6310.071,4450.163
		l-133.635-1.882l-82.304,74.824l-57.305,28.652l0.84,0.646l-2.686,26.852l-7.829,22.509l0.73-0.184l30.233,60.464l18.139,45.35
		l51.397,33.255l114.882-30.233l27.211-51.394l21.161-60.466l66.514-78.606l-48.373-66.51L6310.071,4450.163L6310.071,4450.163z"/>
	<path id="path4315" inkscape:connector-curvature="0" fill="#2A7E1D" stroke="#FFFFFF" stroke-width="7" d="M6155.125,4114.65
		l-93.036,128.182l-24.557,138.131l-9.208,67.53l-46.157,32.481l1.8,1.619l18.795,42.96l34.065,26.204l57.305-28.653l82.304-74.823
		l133.635,1.882l29.209-93.468l3.022-75.583l-78.604-15.116l-57.442-69.533L6155.125,4114.65L6155.125,4114.65z"/>
	<path id="path4326" inkscape:connector-curvature="0" fill="#F0CFBA" stroke="#FFFFFF" stroke-width="7" d="M5972.762,3751.058
		l-0.237-2.852l-1.42,0.532L5972.762,3751.058L5972.762,3751.058z"/>
	<path id="path4553" inkscape:connector-curvature="0" fill="#2A7E1D" stroke="#FFFFFF" stroke-width="7" d="M6063.767,4240.522
		l-57.166-40.017l-117.425,45.824l-71.272,89.092h0.662h7.499l-8.124,1.667l-0.406,1.083l45.604-3.257l24.167,42.959l34.904,32.221
		l24.166,13.426l10.741,34.905l25.051,22.547l46.157-32.481l9.208-67.53l24.557-138.131l1.676-2.31H6063.767z"/>
	<path id="path4582" inkscape:connector-curvature="0" fill="#F64E21" stroke="#FFFFFF" stroke-width="7" d="M5308.146,4144.729
		l-15.107,60.426v67.876l1.599,36.792l64.297-19.566l65.811,21.937l0.655,0.103l97.417,15.381l20.399-0.479l2.281-98.052
		l-17.976-36.848l1.723-0.724l-51.09-32.698l-92.558-3.085L5308.146,4144.729L5308.146,4144.729z"/>
	<path id="path4559" inkscape:connector-curvature="0" fill="#2A7E1D" stroke="#FFFFFF" stroke-width="7" d="M5702.906,4040.292
		l-21.442,24.506l-55.252,33.764l-58.321,76.739l-40.37,16.996l17.975,36.849l-2.28,98.053l89.286-2.101l68.392,10.324h32.221
		l1.405-60.451l-8.59-111.697l23.66-84.787L5702.906,4040.292z"/>
	<path id="path4556" inkscape:connector-curvature="0" fill="#2A7E1D" stroke="#FFFFFF" stroke-width="7" d="M6008.721,4012.384
		l-99.497,24.874l-157.518,42.96l-2.117-1.731l-23.66,84.788l8.59,111.696l-1.405,60.451h84.789l71.272-89.092l117.425-45.824
		l57.166,40.017l88.669-122.166l-44.302-19.795l-61.393-42.972L6008.721,4012.384L6008.721,4012.384z"/>
	<path id="path4324" inkscape:connector-curvature="0" fill="#2A7E1D" stroke="#FFFFFF" stroke-width="7" d="M5973.024,3754.205
		l-38.861,12.954l-39.304,21.164l-39.302,18.139l-18.14,3.025l-18.139,66.51l-54.419,9.07l-18.14,66.512l15.116,30.233
		l-69.534,15.115l11.698,42.113l-1.096,1.252l48.801,39.927l157.518-42.96l99.497-24.874l-29.51-33.534l6.139-101.296
		l-12.278-122.783L5973.024,3754.205L5973.024,3754.205z"/>
	<path id="path4322" inkscape:connector-curvature="0" fill="#2A7E1D" stroke="#FFFFFF" stroke-width="7" d="M6287.89,3940.089
		l-7.863-96.3l-61.39-110.506l-53.428-70.123l-41.813,32.522l-74.797,37.397l-42.385,2.493l-27.619,10.359l-6.071,2.275l0.236,2.852
		l0.704,0.984l0.465,1.86l-0.906,0.302l0.047,0.566l12.278,122.783l-6.139,101.296l67.53,76.739l61.392,42.972l44.303,19.795
		l2.689-3.706l-9.334-14.933l-2.719-81.548l-0.295-8.868l-0.009-0.281l54.418-36.28L6287.89,3940.089L6287.89,3940.089z"/>
	<path id="path4392" inkscape:connector-curvature="0" fill="#BA6B1C" stroke="#FFFFFF" stroke-width="7" d="M6416.624,3501.063
		l-37.544,20.145l-13.837,7.425l-77.291,52.359l-64.825,37.398l-54.852,42.385l-3.066,2.385l53.428,70.123l61.39,110.506
		l1.461,17.895l65.821-49.366l12.172-16.735l81.621-8.682l3.336-56.705l3.336-50.032l-42.066-44.07l35.394-19.306L6416.624,3501.063
		L6416.624,3501.063z"/>
	<path id="path11758" inkscape:connector-curvature="0" fill="#BA6B1C" stroke="#FFFFFF" stroke-width="7" d="M6502.296,3459.395
		l-34.83,14.386l-50.842,27.283l24.479,115.725l-35.395,19.306l42.066,44.07l-3.335,50.032l-3.336,56.705l-81.621,8.682
		l-12.172,16.735l-65.822,49.366l6.402,78.405l60.459-21.765l160.232-45.35l166.28-51.396l48.373-66.512l69.534-30.232
		l36.278-33.256l78.605-54.419l-111.861-33.255l-51.394-57.442l-108.838-24.186l-90.699-36.279L6502.296,3459.395L6502.296,3459.395
		z"/>
	<path id="path11723" inkscape:connector-curvature="0" fill="#FF6C00" stroke="#FFFFFF" stroke-width="7" d="M4720.984,2822.877
		l-20.097-80.381l-71.65-44.509l-53.097-17.458l0.581,1.279l-39.303,33.258l-72.558-21.164l-57.441-90.699l-45.349-30.231
		l-65.848,27.435l-6.71,2.796l-28.302,18.868l2.313,78.636l10.048,83.742l30.148,80.392l90.441,26.799l70.344,13.398l46.894,23.449
		l0.274,1.234l23.175-48.131l63.645-10.048l87.091-10.051l35.399-38.614L4720.984,2822.877z"/>
	<path id="path4900" inkscape:connector-curvature="0" fill="#FF6C00" stroke="#FFFFFF" stroke-width="7" d="M5037.625,2470.77
		l-75.816-9.781l-96.998,30.86l-167.539,57.317l-59.154-45.711l-64.42,45.333l-27.209,66.511l29.652,65.232l53.097,17.457
		l71.65,44.51l20.097,80.381l1.445-1.581h46.896l60.295-30.148l73.693-30.146l56.944-3.35l36.848,40.196l3.35,43.546h87.091
		l-23.448-73.693l23.448-77.043l-20.099-107.189l13.399-36.847l-26.796-36.847L5037.625,2470.77L5037.625,2470.77z"/>
	<path id="path7933" inkscape:connector-curvature="0" fill="#FF6C00" stroke="#FFFFFF" stroke-width="7" d="M4883.215,2288.698
		l-46.896,3.348l-56.944,26.799l-63.645-20.098l-46.896,6.7l-20.769,18.882l1.212,0.737l-6.046,48.375l33.257,75.58l-21.164,42.325
		l-17.207,12.11l59.154,45.711l167.538-57.317l96.998-30.86l75.816,9.781l-10.375-24.638l-16.748-70.343l-50.245-6.699
		l-46.897-16.749l-13.397-13.399l-16.75-50.245H4883.215z"/>
	<path id="path4754" inkscape:connector-curvature="0" fill="#AC223F" stroke="#FFFFFF" stroke-width="7" d="M4526.159,3132.905
		l-67.646,10.021l-117.616-32.077l-122.961,50.788l-38.417-26.524l-2.589,82.822l-29.673,114.989l2.376,0.876l60.294-3.35
		l30.146,6.7h33.497l40.196-16.749l63.645,13.398l23.447,13.399l56.944,36.847l10.05-30.146v-36.848l46.896-20.098l13.398-56.945
		l10.05-56.945L4526.159,3132.905L4526.159,3132.905z"/>
	<path id="path4271" inkscape:connector-curvature="0" fill="#AC223F" stroke="#FFFFFF" stroke-width="7" d="M4302.559,2861.749
		l-50.447,133.327l-72.496,136.938l-0.097,3.099l38.417,26.524l122.96-50.788l117.616,32.077l67.646-10.021l-8.06-33.583
		l3.35-40.197l3.35-70.343l-13.399-60.295l-46.895-23.449l-70.344-13.399l-90.441-26.798L4302.559,2861.749L4302.559,2861.749z"/>
	<path id="path4665" inkscape:connector-curvature="0" fill="#AC223F" stroke="#FFFFFF" stroke-width="7" d="M3691.005,2814.86
		l-1.727,88.121l-63.377,66.711l-73.026,99.804l34.01,6.378l40.196,6.698l33.497,36.846l33.498,56.946l16.749,53.594l13.398,33.498
		l6.7,40.196h2.732l24.409-64.237l18.795-51.015l61.756-91.292l-5.371-142.307l-1.925-113.651l-1.342,0.894l-51.397-3.024
		L3691.005,2814.86z"/>
	<path id="path4278" inkscape:connector-curvature="0" fill="#AC223F" stroke="#FFFFFF" stroke-width="7" d="M3611.492,2700.429
		l-11.282,20.683l-63.489,48.374h-60.465l-87.675,9.07l-84.652,39.302l-32.839,0.995l-1.056,0.031l-8.068,19.161l16.749,50.245
		l60.295,10.048l30.146,6.7l36.847,26.798l20.098,63.643l36.847,66.995l70.343,3.348l19.586,3.673l73.026-99.804l63.377-66.711
		l1.727-88.121l-0.099-0.026l-36.278-48.372v-54.419L3611.492,2700.429L3611.492,2700.429z"/>
	<path id="path4648" inkscape:connector-curvature="0" fill="#AC223F" stroke="#FFFFFF" stroke-width="7" d="M3838.573,3095.994
		l0.042,1.114l-61.755,91.292l-18.795,51.015l-24.41,64.236h24.066l73.693-6.698l28.111-4.164l56.571,80.505l166.779,66.712
		l65.616-106.626l-1.232-0.456l29.674-114.989l2.686-85.92l2.415-4.561l-62.469,5.68l-136.757,16.678L3838.573,3095.994
		L3838.573,3095.994z"/>
	<path id="path4288" inkscape:connector-curvature="0" fill="#AC223F" stroke="#FFFFFF" stroke-width="7" d="M3975.373,2745.111
		l-0.281,0.188l-143.773,95.851l1.924,113.651l5.329,141.193l144.233,53.818l136.756-16.678l62.468-5.68l69.449-131.187
		l-67.077-28.508l-121.411-57.669l-75.883-78.918L3975.373,2745.111L3975.373,2745.111z"/>
	<path id="path7928" inkscape:connector-curvature="0" fill="#AC223F" stroke="#FFFFFF" stroke-width="7" d="M4118.998,2482.542
		l-68.148,57.243l-98.499,33.696l9.538,100.13l15.441,70.193l-1.957,1.306l11.736,86.061l75.882,78.918l121.41,57.669l67.079,28.508
		l0.632-1.191l50.447-133.327l-28.987-77.297l-10.049-83.743l-2.313-78.635l-3.707,2.47l-3.29-36.193l18.094-93.475l-79.481,15.896
		L4118.998,2482.542L4118.998,2482.542z"/>
	<path id="path4849" inkscape:connector-curvature="0" fill="#57429A" stroke="#FFFFFF" stroke-width="7" d="M3742.793,2522.614
		l-85.861,38.49l-99.367,47.695l0.317,3.478l42.327,30.231l18.139,45.349l-6.856,12.573l1.126,0.304l42.01,11.311v54.418
		l36.278,48.373l87.674,24.186l51.397,3.024l78.076-52.051l67.04-44.694l2.237-1.494l-15.441-70.193l-9.538-100.13l-16.842,5.763
		l-103.199-3.036l-0.695,0.403v-4.422L3742.793,2522.614L3742.793,2522.614z"/>
	<path id="path4300" inkscape:connector-curvature="0" fill="#57429A" stroke="#FFFFFF" stroke-width="7" d="M4086.473,2130.655
		l-103.86,45.552l-130.273-2.961l-69.616-14.768l-0.057,0.252l-25.474,50.948l0.018,0.219l59.601,64.015l65.136,65.135
		l-14.805,94.745l-35.529,103.625v39.195l0.695-0.403l103.199,3.036l115.34-39.459l68.148-57.243l73.828,28.228l79.482-15.895
		l0.119-0.618l-63.347-86.15l-12.537-17.048l-81.951-176.047l-28.119-84.357H4086.473z"/>
	<path id="path4784" inkscape:connector-curvature="0" fill="#57429A" stroke="#FFFFFF" stroke-width="7" d="M3584.757,2090.149
		l-25.474,3.919l-22.861,16.136l-5.748,15.327l9.069,66.512v48.372l-27.209,57.442l-18.141,78.604l33.257,78.605l24.186,90.697
		l5.729,63.034l99.367-47.695l85.861-38.49l88.823,49.576v-34.773l35.528-103.625l14.805-94.745l-65.135-65.135l-59.601-64.015
		l5.861,70.325l3.919,62.704l-41.151-103.854l-1.958-60.745l-31.353-54.867l-48.989-9.797l-35.271-1.959L3584.757,2090.149
		L3584.757,2090.149z"/>
	<path id="path4295" inkscape:connector-curvature="0" fill="#57429A" stroke="#FFFFFF" stroke-width="7" d="M3896.32,1758.988
		l-9.797,52.908l-3.919,52.908l-27.434,52.908l-39.19-1.961l13.716,56.827l7.839,43.109l-39.19,72.502l-15.621,70.291l69.616,14.768
		l130.273,2.961l103.86-45.552l-26.516-79.547l6.273-138.034l-36.663-46.31l-29.393-41.15l-54.866-37.23L3896.32,1758.988z"/>
	<path id="path4816" inkscape:connector-curvature="0" fill="#F0CFBA" stroke="#FFFFFF" stroke-width="7" d="M4496.056,1936.388
		h2.061v-15.452L4496.056,1936.388z"/>
	<path id="path4814" inkscape:connector-curvature="0" fill="#E8D8C0" stroke="#FFFFFF" stroke-width="7" d="M4355.667,1936.388
		l-26.647,145.076l8.881,150.998l91.783,71.057l152.815-19.102l65.567,39.911l20.77-18.882l46.895-6.7l3.539,1.117l15.37-61.48
		l7.391-70.208l-105.096-9.732l-29.607-71.057l45.312-60.416l-45.685-4.229l-70.004,5.25l0.469-2.226l-39.303-48.372v-41.005h-2.061
		l-0.122,0.918l-0.104-0.918H4355.667z"/>
	<path id="path4831" inkscape:connector-curvature="0" fill="#E8D8C0" stroke="#FFFFFF" stroke-width="7" d="M4426.26,2300.867
		l-150.534,100.356l-65.25,8.783l61.951,84.25l-18.212,94.092l3.29,36.195l32.008-21.34l72.558-30.23l45.349,30.23l57.442,90.699
		l72.558,21.164l39.302-33.257l-30.233-66.511l27.21-66.511l81.628-57.443l21.164-42.325l-33.257-75.58l6.046-48.375l-66.781-40.648
		l-152.814,19.102L4426.26,2300.867L4426.26,2300.867z"/>
	<path id="path4828" inkscape:connector-curvature="0" fill="#57429A" stroke="#FFFFFF" stroke-width="7" d="M4065.895,1920.466
		l-5.938,130.642l54.634,163.904l81.952,176.047l13.933,18.948l65.249-8.783l150.535-100.356l-88.359-68.405l-8.881-150.997
		l0.722-3.93l-77.702-1.994l-139.154-124.349L4065.895,1920.466L4065.895,1920.466z"/>
	<path id="path7862" inkscape:connector-curvature="0" fill="#57429A" stroke="#FFFFFF" stroke-width="7" d="M4337.213,1674.731
		l-58.787,13.717l-62.704,43.109l-41.15,47.027l-27.434,54.867l-35.271,43.109l-45.069,37.229l-0.568-0.717l-0.336,7.392
		l46.992,30.726l139.154,124.349l77.702,1.994l25.925-141.146h140.163l-11.653-102.937l1.959-52.908l-25.474-25.474l-48.988,21.555
		l-41.149-45.068l-17.635-35.272L4337.213,1674.731L4337.213,1674.731z"/>
	<path id="path4989" inkscape:connector-curvature="0" fill="#E8D8C0" stroke="#FFFFFF" stroke-width="7" d="M3065.844,3525.326
		l-10.009,7.865l-26.408,43.087l-60.686-12.642l-108.029,20.652l-36.541,49.25l-11.76,54.091l-4.127,18.988v100.087l15.475,60.713
		l59.364-15.434l20.302-1.754l-1.341,3.454l38.275,17.666l59.086-57.398l18.355-53.401l54.88-12.194l35.53-114.482l29.607-65.135
		L3065.844,3525.326L3065.844,3525.326z"/>
	<path id="path4302" inkscape:connector-curvature="0" fill="#E8D8C0" stroke="#FFFFFF" stroke-width="7" d="M3354.123,3708.357
		l-11.22,35.704l-1.772,44.3l-12.406,47.844l8.861,38.984l1.772,38.985l7.088,40.756l-2.422,20.586l21.219,15.367l-6.451,41.291
		l9.033,54.197l14.194,58.071l25.809-12.906l16.775-43.873l-3.869-63.23l47.744,34.841l55.487,38.712l40.003,7.744l29.68,23.226
		l78.717,27.1l54.195-12.905l16.778-28.391l2.871-0.607l-26.269-39.403l46.897-49.504l-2.607-85.981l-78.162-39.081l-85.979-28.659
		l-2.607-99.008L3354.123,3708.357z M3543.557,4156.909l23.373,74.799l51.427,32.725l56.1-9.35l32.725-46.75l-93.498-42.075
		L3543.557,4156.909z"/>
	<path id="path4595" inkscape:connector-curvature="0" fill="#D19A3A" stroke="#FFFFFF" stroke-width="7" d="M2980.949,3831.921
		l-40.588,39.428l-38.276-17.666l-6.423,16.569l-54.015,100.089l-27.705,84.226l-3.576,67.936l25.809,43.875l59.357,6.451
		l23.229-36.133l18.067-25.806l11.613,47.744h36.132l46.454-7.742l19.357-32.259l9.031-28.389l36.133,14.193l21.938-16.775
		l-19.356-51.616l-18.068-52.908l-16.775-41.293l0.416,0.417l-26.549-41.92L2980.949,3831.921z"/>
	<path id="path4619" inkscape:connector-curvature="0" fill="#D19A3A" stroke="#FFFFFF" stroke-width="7" d="M3098.902,3663.87
		l-26.221,84.487l-54.88,12.194l-18.354,53.4l-18.497,17.97l56.201,68.419l26.551,41.921l0.899,0.898l55.464,55.463l1.229,2.87
		l21.998,51.328l40.001,32.261l104.524,3.871l40.004-24.519l-12.905-60.649l12.905-40.002l16.202,11.733l2.421-20.586l-7.087-40.757
		l-1.772-38.984l-8.861-38.984l0.333-1.281l9.961-38.413l-130.144-8.678l-71.057-51.318L3098.902,3663.87z"/>
	<path id="path4604" inkscape:connector-curvature="0" fill="#D19A3A" stroke="#FFFFFF" stroke-width="7" d="M3374.798,3474.714
		l-21.264,19.492l-122.269-7.086l-35.439,12.403l-76.198-21.264l-14.176,15.947l-39.608,31.12l71.973,43.413l-29.606,65.135
		l-6.783,21.854l-2.526,8.141l38.916,72.644l71.057,51.319l130.143,8.677l2.113-8.15l1.772-44.3l11.773-37.462l7.719-24.558
		l19.492-38.984l15.948-19.492l10.631-35.439l21.264-10.634l10.633-26.578l28.353-19.492l8.859-23.036l-26.581-30.125
		L3374.798,3474.714L3374.798,3474.714z"/>
	<path id="path4244" inkscape:connector-curvature="0" fill="#E8D8C0" stroke="#FFFFFF" stroke-width="7" d="M1923.127,3820.716
		l-2,1.646l-60.746-33.311l-76.421,1.959l-88.178-3.919l-82.3-1.961c0,0-60.746,15.678-68.584,19.597
		c-7.839,3.919-7.838,43.109-7.838,43.109s13.716,19.594,33.312,23.513c19.595,3.919,70.544,19.595,78.382,29.393
		c7.838,9.798,66.622,35.271,66.622,35.271l72.502-25.473l58.785,3.918l-43.109,31.354l25.474,54.865l27.433,39.19l18.353,20.695
		l-0.865,4.495l58.284-44.295l29.535-53.701l-37.592-88.606L1923.127,3820.716L1923.127,3820.716z"/>
	<path id="path4239" inkscape:connector-curvature="0" fill="#E8D8C0" stroke="#FFFFFF" stroke-width="7" d="M1923.127,3820.716
		l1.049,57.74l37.592,88.606l-29.535,53.702l-58.284,44.295l-12.04,62.607l20.647,2.58l25.809-9.031l10.324,10.321l-5.162,29.681
		l11.613,15.485l24.517-20.647l13.647,7.8l16.271-31.525l89.017-3.069l30.695,18.416l70.601-30.696l82.877,12.28l55.252-15.35
		l0.069,0.273l5.423-53.145l-26.851-13.425l-13.425-59.072l-45.646-118.141l-126.196-91.292l-49.385-34.93l-56.418,27.236
		l-41.15,23.515L1923.127,3820.716L1923.127,3820.716z"/>
	<path id="path4674" inkscape:connector-curvature="0" fill="#E8D8C0" stroke="#FFFFFF" stroke-width="7" d="M2568.666,3879.409
		l13.209,77.605l18.418,64.462l22.962-16.401l9.032,55.488l25.809,77.425l78.715,42.583l51.618-46.454l11.613-51.618l14.195-33.551
		l-0.296,5.619l27.705-84.227l54.016-100.089l7.763-20.022l-20.301,1.754l-116.316,30.24l-104.683,2.327l-67.462-16.285
		L2568.666,3879.409L2568.666,3879.409z"/>
	<path id="path4683" inkscape:connector-curvature="0" fill="#E8D8C0" stroke="#FFFFFF" stroke-width="7" d="M2479.673,3914.074
		l-2.969,28.95l14.803,52.638l-111.854,29.609l-66.159,35.915l-5.408,52.999l18.35,73.396l2.163,18.03l22.38,45.934l33.551,5.161
		l16.775-33.549l41.294-19.355l47.744,5.161l47.746-24.519l56.777-23.227l-6.451-55.488l-10.324-68.393l22.204-15.86l-18.418-64.461
		l-13.209-77.607l-87.991,37.71L2479.673,3914.074L2479.673,3914.074z"/>
	<path id="path4942" inkscape:connector-curvature="0" fill="#E8D8C0" stroke="#FFFFFF" stroke-width="7" d="M2430.678,3765.205
		l-55.414,19.275l-110.086,48.331l-37.591,37.591l45.646,118.141l13.425,59.071l26.851,13.426l-0.015,0.146l66.158-35.915
		l111.854-29.609l-14.803-52.638l2.969-28.95L2430.678,3765.205L2430.678,3765.205z"/>
	<path id="path4945" inkscape:connector-curvature="0" fill="#E8D8C0" stroke="#FFFFFF" stroke-width="7" d="M2510.067,3531.156
		l7.504,19.726l-5.368,32.219l-56.388,8.056l26.852,51.015v59.071l5.212,41.699l-50.858,20.057l-6.342,2.206l49.996,151.913
		l113.989-48.853l67.462,16.285l104.683-2.327l56.951-14.807l-15.475-60.712v-100.087l4.127-18.989l-57.235-14.771l-116.315-79.094
		L2510.067,3531.156L2510.067,3531.156z"/>
	<path id="path4488" inkscape:connector-curvature="0" fill="#53AB5C" stroke="#FFFFFF" stroke-width="7" d="M2858.496,3587.275
		l-68.583-73.601l-4.985-87.264l-39.93-73.945l-0.37,0.509l-108.838,15.117l-57.441-21.163l-54.419,6.047l-48.372,30.233
		l-11.042,28.216l45.551,119.733l128.796,62.61l116.315,79.094l57.234,14.771l11.76-54.091L2858.496,3587.275L2858.496,3587.275z"/>
	<path id="path4951" inkscape:connector-curvature="0" fill="#53AB5C" stroke="#FFFFFF" stroke-width="7" d="M2886.895,3198.284
		l-6.221,9.573l-36.279,57.441l-60.464,33.255l-19.068,26.4l-19.865,27.51l39.93,73.945l4.985,87.264l68.583,73.601l2.217-2.987
		l108.029-20.652l60.686,12.642l26.408-43.087l7.576-5.954l-29.965-70.507l-2.251-135.117l-56.301-72.063l-11.588-16.36h-1.09
		L2886.895,3198.284L2886.895,3198.284z"/>
	<path id="path4261" inkscape:connector-curvature="0" fill="#287967" stroke="#FFFFFF" stroke-width="7" d="M3076.206,3219.231
		l-67.463,13.958h-45.435l11.588,16.36l56.301,72.063l2.251,135.117l29.965,70.507l42.04-33.031l14.176-15.947l17.551,4.897
		l58.646,16.367l35.44-12.403l14.941,0.865l107.327,6.221l21.265-19.492l0.121,0.012l-14.05-110.648l-64.825-69.811l-66.459-22.152
		l-16.128-34.273l-83.746-4.653L3076.206,3219.231L3076.206,3219.231z"/>
	<path id="path4254" inkscape:connector-curvature="0" fill="#E8D8C0" stroke="#FFFFFF" stroke-width="7" d="M1874.097,3271.739
		l-7.837,35.27l-39.19,39.191l-33.311,25.474l-33.313,21.553l-9.797,23.516l-23.516,3.919l-23.515-43.11l-33.311-21.553
		l-19.595,19.595l-37.231,27.434v43.108l-5.879,33.312l9.797,23.515h47.03l45.069-17.635l-25.474,50.947l5.878,52.908l48.989,21.554
		l23.515-37.23l29.393-43.11l17.635-31.354l48.988-1.959l39.191,39.191l54.866,11.758l33.312,33.311l66.624-3.919l-1.903,57.089
		l-0.057,1.696l21.554,64.664l-19.595,43.111l-0.409,0.196l49.385,34.93l126.196,91.292l37.592-37.591l110.086-48.331l61.755-21.48
		l50.859-20.057l-5.213-41.698v-59.071l-26.85-51.015l56.387-8.057l5.369-32.219l-53.056-139.459l-16.168,41.32l-87.675-18.141
		l-48.372,15.117v57.443l-68.428,5.95l-1.107,0.096l-22.043-14.346l-109.523-44.888l-78.382-35.27l-39.189-29.393l-29.393-56.827
		l-9.798-29.392L1874.097,3271.739L1874.097,3271.739z"/>
	<path id="path11658" inkscape:connector-curvature="0" fill="#287967" stroke="#FFFFFF" stroke-width="7" d="M3214.803,3240.701
		l12.612-16.817l32.569-13.957l79.094-41.873l34.894-9.305l30.24-20.937l53.505-25.589v-27.916l10.784-21.566l-5.554-0.264
		l-36.847-66.996l-20.099-63.643l-36.846-26.798l-30.146-6.7l-60.296-10.048l-16.748-50.245l8.068-19.161l-65.871,1.995
		l-63.488-12.094l-60.466,57.443l-30.559,18.676l18.466,26.672l-24.186,60.466c0,0-9.825,15.872-20.786,33.255
		c-5.479,8.692-11.242,17.762-16.203,25.415c-4.96,7.653-9.118,13.89-11.385,16.913c-1.134,1.511-2.503,3.826-4.032,6.72
		c-1.53,2.892-3.218,6.364-4.989,10.19c-3.544,7.653-7.417,16.723-11.007,25.415c-7.18,17.384-13.228,33.255-13.228,33.255
		l-42.325,24.187l-33.081,50.892l75.322,34.905h46.526l67.463-13.957l53.505,13.957l83.746,4.653L3214.803,3240.701
		L3214.803,3240.701z"/>
	<path id="path5017" inkscape:connector-curvature="0" fill="#E8D8C0" stroke="#FFFFFF" stroke-width="7" d="M4354.18,3665.046
		l-2.508,0.346l-50.939-30.349l-17.089,14.24l-92.349,24.55l-97.914,43.892l-15.194,106.356l35.453,75.967h45.8l81.585,20.98
		l88.585,36.476l41.551,34.428l0.134-0.557l2.385-1.699l-25.386-59.24l25.322-124.927l-18.571-97.913L4354.18,3665.046
		L4354.18,3665.046z"/>
	<path id="path5006" inkscape:connector-curvature="0" fill="#E8D8C0" stroke="#FFFFFF" stroke-width="7" d="M4354.18,3665.046
		l0.869,42.55l18.571,97.913l-25.323,124.926l25.387,59.24l133.098-94.703l55.68-68.867l-17.458-12.469l-25.276-68.252
		l-25.278-45.502l10.111-27.808l-25.28-17.695l-0.392-3.129l-29.302,0.637L4354.18,3665.046L4354.18,3665.046z"/>
	<path id="path11669" inkscape:connector-curvature="0" fill="#E8D8C0" stroke="#FFFFFF" stroke-width="7" d="M4314.854,3320.63
		l-17.581,60.739l22.75,63.197l10.111,40.446l2.528,17.695l25.28,37.917l1.734-1.542l-30.065,71.896l-28.88,24.066l50.939,30.348
		l97.915-13.504l29.304-0.637l0.39,3.129l25.19,17.632l54.847-6.619l74.28-43.893l24.367-29.871l10.907-2.974l-30.333-22.75
		l-25.279-15.167l-22.75-17.696v-42.973l5.056-45.502l-20.223-32.864l-30.336-15.166l-58.139-42.973l-19.009-9.505v9.84
		l-10.05,30.146l-56.946-36.847l-23.445-13.398l-62.559-13.171L4314.854,3320.63z"/>
	<path id="path11674" inkscape:connector-curvature="0" fill="#E8D8C0" stroke="#FFFFFF" stroke-width="7" d="M4657.964,3591.629
		l-24.368,29.871l-74.28,43.893l-54.848,6.618l0.091,0.062l-10.111,27.808l25.278,45.502l25.278,68.253l70.779,50.555l73.311,35.392
		l22.75,7.583l12.639,32.862l48.03,12.641h22.75l20.223-40.447l25.279-22.75l2.528-27.808l22.75-7.583l12.639-15.167l-2.528-35.39
		l-7.583-42.972l-15.167-58.142l-7.583-32.863l-12.639-22.751l-10.111-25.278l-30.335-22.751h-35.389l-35.392-5.056l-17.695,2.528
		l-25.28-5.056l-12.202-1.958l-8.815,2.403L4657.964,3591.629z"/>
	<path id="path4277" inkscape:connector-curvature="0" fill="#E8D8C0" stroke="#FFFFFF" stroke-width="7" d="M4562.461,3826.106
		l-55.68,68.867l-135.484,96.402l-17.591,73.073l15.48,39.988l67.1,3.872l56.78,19.356l37.423,77.425l54.195-7.744l77.426-50.326
		l38.712-36.13l35.319-31.284l30.409-43.442l12.828-20.524l12.829-33.354v-29.617h-19.694l-48.03-12.641l-12.639-32.862
		l-22.75-7.583l-73.311-35.392L4562.461,3826.106L4562.461,3826.106z"/>
	<path id="path4704" inkscape:connector-curvature="0" fill="#E8D8C0" stroke="#FFFFFF" stroke-width="7" d="M4163.872,3901.187
		l22.68,56.702l-24.164,56.385l0.331-0.165l2.582,36.13l42.582,23.229l16.777,30.969l-40.004,16.776l-33.551,18.065l-43.873,24.518
		l-29.679,14.194l1.29-24.519l-46.456-2.58l-46.454-19.357l-52.908-5.162l-23.228,40.005l5.162,56.777v45.165l47.746-32.259
		l60.648,20.645l85.167-20.645l78.716-34.843l59.359-10.323l36.13-65.812l40.004-27.099l30.968-33.55l0.011,0.015l17.457-72.517
		l-41.551-34.428l-88.584-36.476l-77.156-19.842H4163.872z"/>
	<path id="path4713" inkscape:connector-curvature="0" fill="#E8D8C0" stroke="#FFFFFF" stroke-width="7" d="M4078.209,3823.933
		l-109.816-52.208l-136.714,90.173l-71.783,75.202l4.332,2.165l2.607,85.98l-46.898,49.504l26.27,39.403l64.23-13.584l70.972-7.744
		l76.135-33.55l122.588-16.776l54.198-14.193l28.057-14.03l24.165-56.385l-22.681-56.702l-4.431-1.139h-45.801l-35.452-75.967
		l0.021-0.148L4078.209,3823.933z"/>
	<path id="path4719" inkscape:connector-curvature="0" fill="#E8D8C0" stroke="#FFFFFF" stroke-width="7" d="M3592.529,3771.211
		l119.888-78.022l55.268-186.164l23.271-66.903l-34.803-26.681l0.261,2.13l-135.483,67.742l-145.398,30.381l-6.817,17.726
		l-28.353,19.492l-10.633,26.579l-21.265,10.633l-10.631,35.439l-15.947,19.492l-19.492,38.984l-8.271,26.318L3592.529,3771.211
		L3592.529,3771.211z"/>
	<path id="path4725" inkscape:connector-curvature="0" fill="#E8D8C0" stroke="#FFFFFF" stroke-width="7" d="M4083.04,3439.734
		l39.519,61.474l-34.906,119.261l-46.54,61.085l55.351,34.791l94.831-42.51l92.349-24.55l45.968-38.306l30.065-71.896l-1.735,1.542
		l-25.279-37.917l-2.528-17.694l-10.111-40.446l-22.75-63.198l17.582-60.738l-1.087-0.229l-40.197,16.749h-33.497l-30.146-6.7
		l-60.294,3.351l-1.144-0.421L4083.04,3439.734L4083.04,3439.734z"/>
	<path id="path4730" inkscape:connector-curvature="0" fill="#E8D8C0" stroke="#FFFFFF" stroke-width="7" d="M4043.729,3678.119
		l-60.793,9.251l-75.626-84.355l-69.813-58.176l-77.216-12.869l-47.862,161.219l-119.888,78.022l4.951,1.306l2.607,99.007
		l85.979,28.66l73.83,36.916l71.783-75.201l136.713-90.173l109.816,52.208l15.172-106.207l3.082-1.382l-55.351-34.791
		L4043.729,3678.119L4043.729,3678.119z"/>
	<path id="path4262" inkscape:connector-curvature="0" fill="#E8D8C0" stroke="#FFFFFF" stroke-width="7" d="M3859.524,3292.789
		l-28.112,4.164l-73.693,6.698h-15.05l13.484,109.789l34.802,26.682l-23.27,66.903l-7.406,24.946l77.216,12.869l69.813,58.175
		l75.626,84.355l60.793-9.251l43.924-57.65l34.906-119.261l-39.519-61.474l-0.167,0.271l-166.778-66.712L3859.524,3292.789
		L3859.524,3292.789z"/>
	<path id="path4625" inkscape:connector-curvature="0" fill="#E8D8C0" stroke="#FFFFFF" stroke-width="7" d="M3737.397,3303.651
		l-42.944,18.835l-136.87,7.301l-125.919-27.374l-135.188-7.683l64.393,69.347l14.05,110.647l74.733,6.219l14.498,24.756
		l7.269,8.758l32.307-4.793l117.206-26.352l135.483-67.742l-13.743-111.919H3737.397L3737.397,3303.651z"/>
	<path id="path11683" inkscape:connector-curvature="0" fill="#AC223F" stroke="#FFFFFF" stroke-width="7" d="M3468.501,3062.74
		l-10.784,21.566v27.916l-53.505,25.589l-30.24,20.937l-34.894,9.305l-79.094,41.873l-32.569,13.957l-12.612,16.817l14.782,31.413
		l66.459,22.153l0.431,0.464l135.189,7.683l125.918,27.374l136.87-7.301l42.944-18.835h-6.473l-0.171-1.026l-6.529-39.169
		l-13.398-33.498l-16.75-53.595l-33.498-56.945l-33.496-36.847l-40.197-6.698l-53.594-10.05L3468.501,3062.74L3468.501,3062.74z"/>
	<path id="path4532" inkscape:connector-curvature="0" fill="#5F6AD3" stroke="#FFFFFF" stroke-width="7" d="M5161.657,4030.007
		l-28.576,30.163l-60.143,17.184l-24.585,49.173l-12.373-4.583l-63.311,34.533l-69.065,37.413l-1.829,53.057l-3.028,0.368
		l-3.776,41.539v51.801l86.333,17.266l71.462-16.815l-2.299-13.799l1.939-17.452l15.515-17.453l-1.81-25.34l7.626-7.626
		l13.575-13.575l34.905,11.635l31.028-21.331l5.817-25.209l21.33-19.394l-0.873-1.527l30.219-37.33l89.472-9.254l8.971,1.281
		l16.789-27.283l-37.232-65.87l-61.685,10.498l-18.217-18.216L5161.657,4030.007L5161.657,4030.007z"/>
	<path id="path4909" inkscape:connector-curvature="0" fill="#B63232" stroke="#FFFFFF" stroke-width="7" d="M4817.806,4092.977
		l-95.847,25.003l-8.233,16.137l-56.777,68.391l-33.55,18.067l-24.52,34.84l16.775,15.486l-15.485,34.839l5.242,13.981l35.426-14.17
		l56.442-20.525l33.353,7.697l43.9-17.56l32.471,36.53l87.965-5.866v-16.977l3.776-41.538l3.028-0.367l1.695-49.14l-37.061-40.024
		L4817.806,4092.977L4817.806,4092.977z"/>
	<path id="path11681" inkscape:connector-curvature="0" fill="#B63232" stroke="#FFFFFF" stroke-width="7" d="M4944.989,3809.27
		l-31.908,0.934l-11.431,10.385l-16.159,21.41l-8.053-1.591l-11.394,13.674l-22.75,7.583l-2.528,27.808l-25.28,22.75l-20.223,40.446
		h-3.057v29.618l-12.828,33.353l-12.828,20.525l-30.41,43.443l9.845-8.721l-24.028,47.095l95.847-25.003l48.602,64.805
		l37.061,40.024l0.135-3.919l69.065-37.412l63.311-34.533l12.373,4.582l24.585-49.172l60.143-17.183l28.576-30.163l-5.132-1.541
		l-38.484-43.615l-38.485-41.051l-17.959-64.139v-41.05l-27.182,0.934l-17.731-19.542l-30.334-5.368l-41.358-5.366V3809.27z"/>
	<path id="path4543" inkscape:connector-curvature="0" fill="#F64E21" stroke="#FFFFFF" stroke-width="7" d="M5299.209,4143.451
		l-89.472,9.254l-30.219,37.33l0.657,1.149l0.216,0.378l-21.33,19.394l-5.817,25.209l-31.029,21.331l-34.904-11.635l-13.576,13.575
		l-7.626,7.626l1.811,25.34l-15.514,17.453l-1.94,17.452l2.3,13.799l-71.462,16.815l-38.345-7.668l-13.456,50.833v42.847
		l37.145-11.729l67.104-16.777l40.325-20.969l24.194-12.581l95.492-38.712l76.136-25.809l24.74-7.531l-1.599-36.793v-67.876
		l15.107-60.426l-8.937-1.277V4143.451z"/>
	<path id="path4918" inkscape:connector-curvature="0" fill="#E8D8C0" stroke="#FFFFFF" stroke-width="7" d="M4894.968,4305.83
		l-87.965,5.865l-32.471-36.529l-43.9,17.56l-33.353-7.697l-56.442,20.524l-35.426,14.17l6.371,16.989l-25.807,18.066l-18.068-5.162
		l-58.067,68.393l16.774,30.968l32.261-18.065l20.645,34.842l-65.811,34.84l21.937,20.646l52.908,1.29l67.101-19.356l37.422-29.679
		l100.653-19.357l99.361,1.292l36.407-11.499v-42.847l13.457-50.833l-47.989-9.599V4305.83L4894.968,4305.83z"/>
	<path id="path11704" inkscape:connector-curvature="0" fill="#E8D8C0" stroke="#FFFFFF" stroke-width="7" d="M5560.197,3560.318
		l-32.689,47.546l-31.025,36.845l7.755,40.722v31.028l19.393,62.054l-17.453,89.203l23.27,29.087l60.115-3.877l36.845,29.087
		l32.969,5.819l67.871,13.574l20.323,7.067l17.292-63.407l54.418-9.07l18.14-66.51l18.139-3.024l39.302-18.139l39.303-21.164
		l39.769-13.256l-0.466-1.86l-45.348-63.488l-123.954-15.115l-75.582-27.21l-130-39.302L5560.197,3560.318L5560.197,3560.318z"/>
	<path id="path11709" inkscape:connector-curvature="0" fill="#E8D8C0" stroke="#FFFFFF" stroke-width="7" d="M5607.934,2576.345
		l-37.763,28.952h-29.087l-9.697,13.575l-29.089,9.695l-27.148-3.879l-23.271,17.454l-29.087,21.331l-7.757,36.845l5.818,36.845
		l13.575,31.029l11.634,60.115l36.846,7.756l13.574-5.816l25.209,11.634l21.331-13.575l36.845,11.635l60.115-17.453l31.028,7.758
		l11.515-0.908l0.709-2.409l21.162-81.631l15.402-43.123l-3.309,0.798l-57.441-63.488L5607.934,2576.345L5607.934,2576.345z"/>
	<path id="path11733" inkscape:connector-curvature="0" fill="#E8D8C0" stroke="#FFFFFF" stroke-width="7" d="M4978.506,2091.244
		l-69.184,61.278l-112.507,20.724l-54.784-5.072l-7.391,70.208l-15.37,61.48l60.106,18.981l56.945-26.799l46.895-3.348l0.952,2.855
		l15.796,47.389l13.398,13.398l46.897,16.748l50.245,6.7l0.712,2.993l19.334-27.618l22.453,16.039l19.248-44.908l67.36-48.115
		l12.832-44.907l6.416-44.907l-22.583-33.873l-9.32,2.248l-45.349-15.116l-54.481-5.447l-5.985-0.599l-36.279-39.302l-6.357-1.031
		H4978.506z"/>
	<path id="path4618" inkscape:connector-curvature="0" fill="#E8D8C0" stroke="#FFFFFF" stroke-width="7" d="M5529.269,4191.563
		l4.771-68.386l-68.736-83.056l-37.232-51.551l-120.288,40.095l-25.804,23.891l5.756-0.978l37.232,65.87l-16.79,27.283l77.416,11.06
		l92.558,3.085l51.09,32.698L5529.269,4191.563L5529.269,4191.563z"/>
	<path id="path4629" inkscape:connector-curvature="0" fill="#E8D8C0" stroke="#FFFFFF" stroke-width="7" d="M5436.808,3870.342
		l-11.599,29.444l14.319,51.551l-10.712,38.261l36.488,50.523l68.736,83.056l-4.771,68.386l38.621-16.263l58.321-76.738
		l55.252-33.765l22.539-25.758l-11.699-42.113l69.535-15.115l-15.116-30.233l0.847-3.105l-20.322-7.067l-67.872-13.574
		l-32.967-5.819l-36.846-29.087l-60.114,3.877l-23.27-29.087l0.242-1.241L5436.808,3870.342L5436.808,3870.342z"/>
	<path id="path4600" inkscape:connector-curvature="0" fill="#E8D8C0" stroke="#FFFFFF" stroke-width="7" d="M5120.985,3779.091
		l-59.527,59.526l0.136-0.009v41.049l17.959,64.139l38.486,41.051l38.484,43.615l51.312,15.394l18.216,18.216l55.93-9.519
		l25.804-23.891l120.288-40.096l0.744,1.028l10.711-38.261l-14.319-51.55l11.6-29.445l-14.464,0.804l-214.801,8.593l-86.558-100.648
		V3779.091z"/>
	<path id="path4256" inkscape:connector-curvature="0" fill="#E8D8C0" stroke="#FFFFFF" stroke-width="7" d="M5497.075,3644.003
		l-46.411,7.426l-153.384,29.928l-153.384,74.823l-22.911,22.911l86.558,100.648l214.801-8.593l84.076-4.67l17.211-87.962
		l-19.393-62.054v-31.028l-7.756-40.722L5497.075,3644.003z"/>
	<path id="path4289" inkscape:connector-curvature="0" fill="#E8D8C0" stroke="#FFFFFF" stroke-width="7" d="M4941.642,3809.367
		l2.854-34.246l-15.631-39.08l127.666-109.43l-33.87-112.035l7.817-130.271l-143.301-15.632l-119.849-46.898l-130.274,33.871
		l-59.559,59.558l18.068,29.362l-5.056,45.502v42.973l22.75,17.697l25.279,15.166l30.334,22.75l-2.091,0.57l12.203,1.958
		l25.279,5.056l17.695-2.528l35.391,5.056h35.39l30.336,22.752l10.111,25.277l12.639,22.75l7.583,32.864l15.167,58.141l7.583,42.972
		l2.528,35.392l-1.245,1.493l8.053,1.591l16.158-21.41l11.432-10.385L4941.642,3809.367L4941.642,3809.367z"/>
	<path id="path4924" inkscape:connector-curvature="0" fill="#E8D8C0" stroke="#FFFFFF" stroke-width="7" d="M5316.485,3457.608
		l-26.145,55.778l-26.685,96.73l-73.382,80.053l16.651,35.263l90.355-44.076l153.384-29.929l46.411-7.425l30.433-36.139
		l32.688-47.546l-3.94-4.786l-3.023-102.791l0.485-0.459h-43.367l-192.447,5.923L5316.485,3457.608L5316.485,3457.608z"/>
	<path id="path4673" inkscape:connector-curvature="0" fill="#E8D8C0" stroke="#FFFFFF" stroke-width="7" d="M5092.888,3363.46
		l-63.544,20.721l1.133,0.124l-7.817,130.271l33.871,112.035l-127.667,109.43l15.631,39.08l-2.854,34.246l3.346-0.098l41.359,5.367
		l30.333,5.367l17.732,19.542l27.045-0.928l82.437-82.437l63.029-30.747l-16.65-35.263l73.381-80.052l26.686-96.73l26.145-55.779
		L5092.888,3363.46L5092.888,3363.46z"/>
	<path id="path4687" inkscape:connector-curvature="0" fill="#E8D8C0" stroke="#FFFFFF" stroke-width="7" d="M5324.282,2945.661
		l32.113,86.199l79.94,97.704l41.449,79.94l100.164-3.181l-0.528-1.49l18.141-63.488h30.231l28.688-15.029l-1.479-0.087
		l-9.069-24.188l-6.047-90.697l30.233-51.395v-81.629l14.408-48.985l-11.516,0.907l-31.028-7.757l-60.114,17.453l-36.846-11.635
		l-21.331,13.575l-25.208-11.635l-13.575,5.816l-35.276-7.425l-32.023,49.265L5324.282,2945.661L5324.282,2945.661z"/>
	<path id="path4694" inkscape:connector-curvature="0" fill="#E8D8C0" stroke="#FFFFFF" stroke-width="7" d="M5478.094,3209.494
		l-18.073,41.46l-207.252-53.295l-165.801,8.883l-32.568,62.175l43.178,96.717l220.327,92.771l192.448-5.923h43.367l53.934-50.937
		l3.024-45.348v-57.443l-32.729-92.233L5478.094,3209.494z"/>
	<path id="path4718" inkscape:connector-curvature="0" fill="#E8D8C0" stroke="#FFFFFF" stroke-width="7" d="M4829.234,3345.998
		l29.756-59.515l-17.763-109.547l-53.293-88.823l-97.704,2.961l-169.426-24.203l-2.705,32.451l20.098,83.741l-10.05,56.945
		l-13.398,56.945l-46.895,20.098v27.008l19.01,9.504l58.138,42.973l30.336,15.167l2.156,3.501l59.559-59.559l130.272-33.871
		L4829.234,3345.998z"/>
	<path id="path4721" inkscape:connector-curvature="0" fill="#E8D8C0" stroke="#FFFFFF" stroke-width="7" d="M5069.189,2976.207
		l-76.965-6.522l-148.036,44.41l-55.924,74.568l52.963,88.274l17.763,109.547l-29.756,59.515l57.943,22.675l142.167,15.509
		l63.544-20.721l4.688,1.974l-43.177-96.717l32.568-62.175l0.584-0.031l-21.309-88.791L5069.189,2976.207L5069.189,2976.207z"/>
	<path id="path4707" inkscape:connector-curvature="0" fill="#E8D8C0" stroke="#FFFFFF" stroke-width="7" d="M4960.258,2757.653
		l-56.945,3.351l-73.693,30.146l-60.295,30.148h-46.895l-36.847,40.194l-87.091,10.05l-63.645,10.048l-23.176,48.132l13.127,59.061
		l-3.35,70.343l-0.646,7.746l169.425,24.203l97.704-2.961l0.33,0.549l55.925-74.568l148.035-44.41l76.965,6.522l0.014-0.601
		l-71.057-112.508l2.553-21.702h-0.243l-3.351-43.546L4960.258,2757.653L4960.258,2757.653z"/>
	<path id="path4682" inkscape:connector-curvature="0" fill="#E8D8C0" stroke="#FFFFFF" stroke-width="7" d="M5000.697,2841.396
		l-2.553,21.702l71.057,112.508l-2.959,142.115l21.309,88.792l165.216-8.852l207.252,53.294l18.073-41.459l-0.31,0.01
		l-41.449-79.939l-79.94-97.705l-32.113-86.199l-0.456,0.338l-145.076-50.334l-92.898-59.595l1.694,5.326L5000.697,2841.396
		L5000.697,2841.396z"/>
	<path id="path11738" inkscape:connector-curvature="0" fill="#E8D8C0" stroke="#FFFFFF" stroke-width="7" d="M5346.744,2487.42
		l-27.504,8.09l-6.416,32.077l-64.152,9.623l-86.607,16.038l-41.701-6.416l-40.035,1.212l-12.882,35.426l20.099,107.189
		l-23.448,77.043l21.754,68.368l92.898,59.595l145.076,50.333l91.782-68.098l32.023-49.264l-1.57-0.331l-11.634-60.115
		l-13.575-31.029l-5.818-36.844l7.757-36.845l29.087-21.331l23.271-17.454l27.148,3.878l29.089-9.695l9.697-13.574h29.087
		l37.763-28.952l-0.282-0.349l-75.581-15.116l-114.886-12.093l-69.534-51.396L5346.744,2487.42z"/>
	<path id="path11728" inkscape:connector-curvature="0" fill="#E8D8C0" stroke="#FFFFFF" stroke-width="7" d="M5214.628,2122.323
		v9.254l-78.354,18.915l22.583,33.873l-6.416,44.906l-12.833,44.908l-67.36,48.115l-19.247,44.909l-22.453-16.04l-19.334,27.619
		l16.036,67.349l26.799,63.645l26.797,36.847l-0.517,1.421l40.035-1.213l41.7,6.416l86.608-16.038l64.153-9.624l6.415-32.077
		l27.504-8.089l-11.186-123.053l11.045-18.408l-1.976,0.27l9.069-84.652l9.069-72.559l-66.51-48.372L5214.628,2122.323
		L5214.628,2122.323z"/>
	
		<path id="path7828" sodipodi:nodetypes="ccccccccccccccccccccccccccccccccccccccccccccccccccccccccccccccccccccccccccccccccccccccccccccccccccccccccccccccccccccccccccccccccccccccccccc" inkscape:connector-curvature="0" fill="#D4AB90" stroke="#FFFFFF" stroke-width="7" d="
		M3450.058,4722.578l-18.701,51.425l56.1,65.448l140.249-9.35l130.897-9.349l46.75-23.374l-102.848-56.1l-74.799-14.026
		l-98.175,4.676L3450.058,4722.578z M5390.157,4844.126l-65.45,4.674v93.501l60.774,28.048l42.075-18.7l28.048-70.124
		L5390.157,4844.126z M5016.161,4876.851l-88.823,32.725l-42.074,70.124l70.124,70.124l107.522-23.374h116.875l107.523,37.398
		l56.099-32.725l-84.148-84.147l-121.549-32.725L5016.161,4876.851z"/>
	<path id="path11602" inkscape:connector-curvature="0" fill="#E8D8C0" stroke="#FFFFFF" stroke-width="7" d="M2328.598,4205.609
		l-2.163-18.029l-18.418-73.67l-55.252,15.349l-82.877-12.279l-70.601,30.695l-30.696-18.416l-89.016,3.069l-16.271,31.525
		l13.452,7.687l27.099,51.616l3.872,67.102l21.937,18.066h32.26l19.357,30.969l29.678,1.292l33.551,23.227l32.26,12.903
		l69.683-6.451l72.262-27.099l-7.741-32.261l-19.358-21.937l43.875,3.872l-19.358-27.099l5.162-38.712l5.162-25.809
		L2328.598,4205.609L2328.598,4205.609z"/>
</g>
</svg>
